<svg id="visual" viewBox="0 0 900 600" width="900" height="600" xmlns="http://www.w3.org/2000/svg" xmlns:xlink="http://www.w3.org/1999/xlink" version="1.1"><rect x="0" y="0" width="900" height="600" fill="#79155B"></rect><path d="M481 0L338 0L338 86L464 86L464 171L435 171L435 257L374 257L374 343L466 343L466 429L435 429L435 514L363 514L363 600L0 600L0 514L0 514L0 429L0 429L0 343L0 343L0 257L0 257L0 171L0 171L0 86L0 86L0 0L0 0Z" fill="#c23373"></path><path d="M369 0L321 0L321 86L323 86L323 171L255 171L255 257L379 257L379 343L316 343L316 429L360 429L360 514L321 514L321 600L0 600L0 514L0 514L0 429L0 429L0 343L0 343L0 257L0 257L0 171L0 171L0 86L0 86L0 0L0 0Z" fill="#e04868"></path><path d="M113 0L164 0L164 86L232 86L232 171L151 171L151 257L89 257L89 343L226 343L226 429L97 429L97 514L124 514L124 600L0 600L0 514L0 514L0 429L0 429L0 343L0 343L0 257L0 257L0 171L0 171L0 86L0 86L0 0L0 0Z" fill="#f6635c"></path></svg>